<mxfile host="Electron" modified="2024-06-24T17:57:50.428Z" agent="Mozilla/5.0 (Macintosh; Intel Mac OS X 10_15_7) AppleWebKit/537.36 (KHTML, like Gecko) draw.io/24.4.8 Chrome/124.0.6367.207 Electron/30.0.6 Safari/537.36" etag="ayQmM9r7fea53c1PcxPV" version="24.4.8" type="device">
  <diagram name="Page-1" id="QP-eoUjycSrcZopoflk8">
    <mxGraphModel dx="1195" dy="664" grid="1" gridSize="10" guides="1" tooltips="1" connect="1" arrows="1" fold="1" page="1" pageScale="1" pageWidth="1169" pageHeight="1654" math="0" shadow="0">
      <root>
        <mxCell id="0" />
        <mxCell id="1" parent="0" />
        <mxCell id="vojb6_MbdruIdkD_frk7-1" value="Client" style="swimlane;childLayout=stackLayout;horizontal=1;startSize=50;horizontalStack=0;rounded=1;fontSize=14;fontStyle=0;strokeWidth=2;resizeParent=0;resizeLast=1;shadow=0;dashed=0;align=center;arcSize=4;whiteSpace=wrap;html=1;fillColor=#ffe6cc;strokeColor=#d79b00;" parent="1" vertex="1">
          <mxGeometry x="95" y="200" width="160" height="170" as="geometry" />
        </mxCell>
        <mxCell id="vojb6_MbdruIdkD_frk7-2" value="firstname&lt;div&gt;lastname&lt;/div&gt;&lt;div&gt;age&lt;/div&gt;&lt;div&gt;city&lt;/div&gt;&lt;div&gt;job&lt;/div&gt;&lt;div&gt;salary&lt;/div&gt;" style="align=left;strokeColor=none;fillColor=none;spacingLeft=4;fontSize=12;verticalAlign=top;resizable=0;rotatable=0;part=1;html=1;" parent="vojb6_MbdruIdkD_frk7-1" vertex="1">
          <mxGeometry y="50" width="160" height="120" as="geometry" />
        </mxCell>
        <mxCell id="vojb6_MbdruIdkD_frk7-4" value="Bank" style="swimlane;childLayout=stackLayout;horizontal=1;startSize=50;horizontalStack=0;rounded=1;fontSize=14;fontStyle=0;strokeWidth=2;resizeParent=0;resizeLast=1;shadow=0;dashed=0;align=center;arcSize=4;whiteSpace=wrap;html=1;fillColor=#fff2cc;strokeColor=#d6b656;" parent="1" vertex="1">
          <mxGeometry x="375" y="200" width="160" height="170" as="geometry" />
        </mxCell>
        <mxCell id="vojb6_MbdruIdkD_frk7-5" value="name&lt;div&gt;client : List[Client]&lt;/div&gt;" style="align=left;strokeColor=none;fillColor=none;spacingLeft=4;fontSize=12;verticalAlign=top;resizable=0;rotatable=0;part=1;html=1;" parent="vojb6_MbdruIdkD_frk7-4" vertex="1">
          <mxGeometry y="50" width="160" height="120" as="geometry" />
        </mxCell>
        <mxCell id="vojb6_MbdruIdkD_frk7-8" value="Account" style="swimlane;childLayout=stackLayout;horizontal=1;startSize=50;horizontalStack=0;rounded=1;fontSize=14;fontStyle=0;strokeWidth=2;resizeParent=0;resizeLast=1;shadow=0;dashed=0;align=center;arcSize=4;whiteSpace=wrap;html=1;fillColor=#dae8fc;strokeColor=#6c8ebf;" parent="1" vertex="1">
          <mxGeometry x="655" y="200" width="160" height="170" as="geometry" />
        </mxCell>
        <mxCell id="vojb6_MbdruIdkD_frk7-9" value="number&lt;div&gt;solde&lt;/div&gt;" style="align=left;strokeColor=none;fillColor=none;spacingLeft=4;fontSize=12;verticalAlign=top;resizable=0;rotatable=0;part=1;html=1;" parent="vojb6_MbdruIdkD_frk7-8" vertex="1">
          <mxGeometry y="50" width="160" height="120" as="geometry" />
        </mxCell>
        <mxCell id="vojb6_MbdruIdkD_frk7-10" value="CreditCard" style="swimlane;childLayout=stackLayout;horizontal=1;startSize=50;horizontalStack=0;rounded=1;fontSize=14;fontStyle=0;strokeWidth=2;resizeParent=0;resizeLast=1;shadow=0;dashed=0;align=center;arcSize=4;whiteSpace=wrap;html=1;fillColor=#e1d5e7;strokeColor=#9673a6;" parent="1" vertex="1">
          <mxGeometry x="935" y="200" width="160" height="170" as="geometry" />
        </mxCell>
        <mxCell id="vojb6_MbdruIdkD_frk7-11" value="card_number&lt;div&gt;expiration_date&lt;/div&gt;&lt;div&gt;cvv&lt;/div&gt;" style="align=left;strokeColor=none;fillColor=none;spacingLeft=4;fontSize=12;verticalAlign=top;resizable=0;rotatable=0;part=1;html=1;" parent="vojb6_MbdruIdkD_frk7-10" vertex="1">
          <mxGeometry y="50" width="160" height="120" as="geometry" />
        </mxCell>
        <mxCell id="vojb6_MbdruIdkD_frk7-12" value="&amp;lt;&amp;lt;table&amp;gt;&amp;gt;&lt;div&gt;client&lt;/div&gt;" style="swimlane;childLayout=stackLayout;horizontal=1;startSize=50;horizontalStack=0;rounded=1;fontSize=14;fontStyle=0;strokeWidth=2;resizeParent=0;resizeLast=1;shadow=0;dashed=0;align=center;arcSize=4;whiteSpace=wrap;html=1;fillColor=#ffe6cc;strokeColor=#d79b00;" parent="1" vertex="1">
          <mxGeometry x="175" y="830" width="160" height="220" as="geometry" />
        </mxCell>
        <mxCell id="vojb6_MbdruIdkD_frk7-13" value="&lt;div style=&quot;font-size: 14px;&quot;&gt;&lt;font color=&quot;#ff0000&quot; style=&quot;font-size: 14px;&quot;&gt;&lt;b&gt;id&lt;/b&gt;&lt;/font&gt;&lt;/div&gt;&lt;font style=&quot;font-size: 14px;&quot;&gt;firstname&lt;/font&gt;&lt;div style=&quot;font-size: 14px;&quot;&gt;&lt;font style=&quot;font-size: 14px;&quot;&gt;lastname&lt;/font&gt;&lt;/div&gt;&lt;div style=&quot;font-size: 14px;&quot;&gt;&lt;font style=&quot;font-size: 14px;&quot;&gt;age&lt;/font&gt;&lt;/div&gt;&lt;div style=&quot;font-size: 14px;&quot;&gt;&lt;font style=&quot;font-size: 14px;&quot;&gt;city&lt;/font&gt;&lt;/div&gt;&lt;div style=&quot;font-size: 14px;&quot;&gt;&lt;font style=&quot;font-size: 14px;&quot;&gt;job&lt;/font&gt;&lt;/div&gt;&lt;div style=&quot;font-size: 14px;&quot;&gt;&lt;font style=&quot;font-size: 14px;&quot;&gt;salary&lt;/font&gt;&lt;/div&gt;&lt;div style=&quot;font-size: 14px;&quot;&gt;&lt;font style=&quot;font-size: 14px;&quot;&gt;&lt;br&gt;&lt;/font&gt;&lt;/div&gt;&lt;div style=&quot;font-size: 14px;&quot;&gt;&lt;font color=&quot;#cc00cc&quot; style=&quot;font-size: 14px;&quot;&gt;&lt;b style=&quot;&quot;&gt;bank_id&lt;/b&gt;&lt;/font&gt;&lt;/div&gt;" style="align=left;strokeColor=none;fillColor=none;spacingLeft=4;fontSize=12;verticalAlign=top;resizable=0;rotatable=0;part=1;html=1;" parent="vojb6_MbdruIdkD_frk7-12" vertex="1">
          <mxGeometry y="50" width="160" height="170" as="geometry" />
        </mxCell>
        <mxCell id="vojb6_MbdruIdkD_frk7-24" style="edgeStyle=orthogonalEdgeStyle;rounded=0;orthogonalLoop=1;jettySize=auto;html=1;entryX=0.5;entryY=0;entryDx=0;entryDy=0;endArrow=diamondThin;endFill=1;endSize=15;" parent="1" source="vojb6_MbdruIdkD_frk7-14" target="vojb6_MbdruIdkD_frk7-12" edge="1">
          <mxGeometry relative="1" as="geometry" />
        </mxCell>
        <mxCell id="vojb6_MbdruIdkD_frk7-14" value="&amp;lt;&amp;lt;table&amp;gt;&amp;gt;&lt;div&gt;bank&lt;/div&gt;" style="swimlane;childLayout=stackLayout;horizontal=1;startSize=50;horizontalStack=0;rounded=1;fontSize=14;fontStyle=0;strokeWidth=2;resizeParent=0;resizeLast=1;shadow=0;dashed=0;align=center;arcSize=4;whiteSpace=wrap;html=1;fillColor=#fff2cc;strokeColor=#d6b656;" parent="1" vertex="1">
          <mxGeometry x="495" y="660" width="160" height="140" as="geometry" />
        </mxCell>
        <mxCell id="vojb6_MbdruIdkD_frk7-15" value="&lt;div style=&quot;font-size: 14px;&quot;&gt;&lt;font color=&quot;#ff0000&quot; style=&quot;font-size: 14px;&quot;&gt;&lt;b&gt;id&lt;/b&gt;&lt;/font&gt;&lt;/div&gt;&lt;font style=&quot;font-size: 14px;&quot;&gt;name&lt;/font&gt;" style="align=left;strokeColor=none;fillColor=none;spacingLeft=4;fontSize=12;verticalAlign=top;resizable=0;rotatable=0;part=1;html=1;" parent="vojb6_MbdruIdkD_frk7-14" vertex="1">
          <mxGeometry y="50" width="160" height="90" as="geometry" />
        </mxCell>
        <mxCell id="vojb6_MbdruIdkD_frk7-16" value="&amp;lt;&amp;lt;table&amp;gt;&amp;gt;&lt;div&gt;account&lt;/div&gt;" style="swimlane;childLayout=stackLayout;horizontal=1;startSize=50;horizontalStack=0;rounded=1;fontSize=14;fontStyle=0;strokeWidth=2;resizeParent=0;resizeLast=1;shadow=0;dashed=0;align=center;arcSize=4;whiteSpace=wrap;html=1;fillColor=#dae8fc;strokeColor=#6c8ebf;" parent="1" vertex="1">
          <mxGeometry x="555" y="1030" width="160" height="170" as="geometry" />
        </mxCell>
        <mxCell id="vojb6_MbdruIdkD_frk7-17" value="&lt;div style=&quot;font-size: 14px;&quot;&gt;&lt;font color=&quot;#ff0000&quot; style=&quot;font-size: 14px;&quot;&gt;&lt;b&gt;id&lt;/b&gt;&lt;/font&gt;&lt;/div&gt;&lt;font style=&quot;font-size: 14px;&quot;&gt;number&lt;/font&gt;&lt;div style=&quot;font-size: 14px;&quot;&gt;solde&lt;/div&gt;&lt;div style=&quot;font-size: 14px;&quot;&gt;&lt;font style=&quot;font-size: 14px;&quot;&gt;&lt;br&gt;&lt;/font&gt;&lt;/div&gt;&lt;div style=&quot;font-size: 14px;&quot;&gt;&lt;font color=&quot;#cc00cc&quot; style=&quot;font-size: 14px;&quot;&gt;&lt;b&gt;client_id&lt;/b&gt;&lt;/font&gt;&lt;/div&gt;&lt;div style=&quot;font-size: 14px;&quot;&gt;&lt;font color=&quot;#cc00cc&quot; style=&quot;font-size: 14px;&quot;&gt;&lt;b&gt;credit_card_id&lt;/b&gt;&lt;/font&gt;&lt;/div&gt;" style="align=left;strokeColor=none;fillColor=none;spacingLeft=4;fontSize=12;verticalAlign=top;resizable=0;rotatable=0;part=1;html=1;" parent="vojb6_MbdruIdkD_frk7-16" vertex="1">
          <mxGeometry y="50" width="160" height="120" as="geometry" />
        </mxCell>
        <mxCell id="vojb6_MbdruIdkD_frk7-18" value="&amp;lt;&amp;lt;table&amp;gt;&amp;gt;&lt;div&gt;credit_card&lt;/div&gt;" style="swimlane;childLayout=stackLayout;horizontal=1;startSize=50;horizontalStack=0;rounded=1;fontSize=14;fontStyle=0;strokeWidth=2;resizeParent=0;resizeLast=1;shadow=0;dashed=0;align=center;arcSize=4;whiteSpace=wrap;html=1;fillColor=#e1d5e7;strokeColor=#9673a6;" parent="1" vertex="1">
          <mxGeometry x="915" y="840" width="160" height="170" as="geometry" />
        </mxCell>
        <mxCell id="vojb6_MbdruIdkD_frk7-19" value="&lt;div style=&quot;font-size: 14px;&quot;&gt;&lt;font color=&quot;#ff0000&quot; style=&quot;font-size: 14px;&quot;&gt;&lt;b&gt;id&lt;/b&gt;&lt;/font&gt;&lt;/div&gt;&lt;font style=&quot;font-size: 14px;&quot;&gt;card_number&lt;/font&gt;&lt;div style=&quot;font-size: 14px;&quot;&gt;&lt;font style=&quot;font-size: 14px;&quot;&gt;expiration_date&lt;/font&gt;&lt;/div&gt;&lt;div style=&quot;font-size: 14px;&quot;&gt;&lt;font style=&quot;font-size: 14px;&quot;&gt;cvv&lt;/font&gt;&lt;/div&gt;" style="align=left;strokeColor=none;fillColor=none;spacingLeft=4;fontSize=12;verticalAlign=top;resizable=0;rotatable=0;part=1;html=1;" parent="vojb6_MbdruIdkD_frk7-18" vertex="1">
          <mxGeometry y="50" width="160" height="120" as="geometry" />
        </mxCell>
        <mxCell id="vojb6_MbdruIdkD_frk7-22" style="edgeStyle=orthogonalEdgeStyle;rounded=0;orthogonalLoop=1;jettySize=auto;html=1;endArrow=diamondThin;endFill=1;endSize=15;" parent="1" source="vojb6_MbdruIdkD_frk7-13" target="vojb6_MbdruIdkD_frk7-16" edge="1">
          <mxGeometry relative="1" as="geometry" />
        </mxCell>
        <mxCell id="vojb6_MbdruIdkD_frk7-23" style="edgeStyle=orthogonalEdgeStyle;rounded=0;orthogonalLoop=1;jettySize=auto;html=1;endArrow=diamondThin;endFill=1;endSize=15;" parent="1" source="vojb6_MbdruIdkD_frk7-19" target="vojb6_MbdruIdkD_frk7-16" edge="1">
          <mxGeometry relative="1" as="geometry" />
        </mxCell>
        <mxCell id="vojb6_MbdruIdkD_frk7-25" value="PYTHON CODE" style="shape=umlFrame;whiteSpace=wrap;html=1;pointerEvents=0;recursiveResize=0;container=1;collapsible=0;width=160;" parent="1" vertex="1">
          <mxGeometry x="75" y="160" width="1040" height="240" as="geometry" />
        </mxCell>
        <mxCell id="vojb6_MbdruIdkD_frk7-26" value="BASE DE DONNEES" style="shape=umlFrame;whiteSpace=wrap;html=1;pointerEvents=0;recursiveResize=0;container=1;collapsible=0;width=160;fillColor=#e1d5e7;strokeColor=#9673a6;" parent="1" vertex="1">
          <mxGeometry x="115" y="640" width="980" height="580" as="geometry" />
        </mxCell>
        <mxCell id="vojb6_MbdruIdkD_frk7-27" value="" style="shape=cylinder3;whiteSpace=wrap;html=1;boundedLbl=1;backgroundOutline=1;size=15;" parent="vojb6_MbdruIdkD_frk7-26" vertex="1">
          <mxGeometry x="25" y="40" width="60" height="80" as="geometry" />
        </mxCell>
        <mxCell id="M0unEuRq_5-_rd7iYxjn-1" value="cles etrangeres" style="text;html=1;align=center;verticalAlign=middle;whiteSpace=wrap;rounded=0;fillColor=#e1d5e7;strokeColor=#9673a6;" parent="vojb6_MbdruIdkD_frk7-26" vertex="1">
          <mxGeometry x="55" y="440" width="150" height="30" as="geometry" />
        </mxCell>
        <mxCell id="M0unEuRq_5-_rd7iYxjn-2" value="One to Many" style="text;html=1;align=center;verticalAlign=middle;whiteSpace=wrap;rounded=0;" parent="vojb6_MbdruIdkD_frk7-26" vertex="1">
          <mxGeometry x="195" y="50" width="105" height="30" as="geometry" />
        </mxCell>
        <mxCell id="M0unEuRq_5-_rd7iYxjn-3" value="One to One" style="text;html=1;align=center;verticalAlign=middle;whiteSpace=wrap;rounded=0;" parent="vojb6_MbdruIdkD_frk7-26" vertex="1">
          <mxGeometry x="315" y="360" width="105" height="30" as="geometry" />
        </mxCell>
        <mxCell id="M0unEuRq_5-_rd7iYxjn-4" value="One to One" style="text;html=1;align=center;verticalAlign=middle;whiteSpace=wrap;rounded=0;" parent="vojb6_MbdruIdkD_frk7-26" vertex="1">
          <mxGeometry x="615" y="275" width="105" height="30" as="geometry" />
        </mxCell>
        <mxCell id="NB0SkyHd5H2j1F6-ya5s-1" value="id: primary key" style="text;html=1;align=center;verticalAlign=middle;whiteSpace=wrap;rounded=0;fillColor=#f8cecc;strokeColor=#b85450;" parent="vojb6_MbdruIdkD_frk7-26" vertex="1">
          <mxGeometry x="615" y="40" width="125" height="30" as="geometry" />
        </mxCell>
        <mxCell id="vojb6_MbdruIdkD_frk7-28" value="&lt;font style=&quot;font-size: 18px;&quot;&gt;ORM&lt;/font&gt;&lt;div style=&quot;font-size: 18px;&quot;&gt;&lt;font style=&quot;font-size: 18px;&quot;&gt;SQLALCHEMY&lt;/font&gt;&lt;/div&gt;" style="ellipse;whiteSpace=wrap;html=1;" parent="1" vertex="1">
          <mxGeometry x="430" y="450" width="400" height="110" as="geometry" />
        </mxCell>
        <mxCell id="vojb6_MbdruIdkD_frk7-29" value="" style="html=1;shadow=0;dashed=0;align=center;verticalAlign=middle;shape=mxgraph.arrows2.jumpInArrow;dy=15;dx=38;arrowHead=55;rotation=-50;" parent="1" vertex="1">
          <mxGeometry x="485" y="560" width="100" height="100" as="geometry" />
        </mxCell>
        <mxCell id="vojb6_MbdruIdkD_frk7-30" value="" style="html=1;shadow=0;dashed=0;align=center;verticalAlign=middle;shape=mxgraph.arrows2.jumpInArrow;dy=15;dx=38;arrowHead=55;rotation=-70;" parent="1" vertex="1">
          <mxGeometry x="430" y="380" width="100" height="100" as="geometry" />
        </mxCell>
        <mxCell id="M0unEuRq_5-_rd7iYxjn-6" value="" style="html=1;shadow=0;dashed=0;align=center;verticalAlign=middle;shape=mxgraph.arrows2.jumpInArrow;dy=15;dx=38;arrowHead=55;rotation=105;" parent="1" vertex="1">
          <mxGeometry x="510" y="390" width="100" height="100" as="geometry" />
        </mxCell>
        <mxCell id="M0unEuRq_5-_rd7iYxjn-7" value="" style="html=1;shadow=0;dashed=0;align=center;verticalAlign=middle;shape=mxgraph.arrows2.jumpInArrow;dy=15;dx=38;arrowHead=55;rotation=-215;" parent="1" vertex="1">
          <mxGeometry x="630" y="560" width="100" height="100" as="geometry" />
        </mxCell>
        <mxCell id="M0unEuRq_5-_rd7iYxjn-8" style="edgeStyle=orthogonalEdgeStyle;rounded=0;orthogonalLoop=1;jettySize=auto;html=1;entryX=0.205;entryY=-0.006;entryDx=0;entryDy=0;entryPerimeter=0;strokeWidth=3;" parent="1" source="vojb6_MbdruIdkD_frk7-2" target="vojb6_MbdruIdkD_frk7-12" edge="1">
          <mxGeometry relative="1" as="geometry">
            <Array as="points">
              <mxPoint x="30" y="310" />
              <mxPoint x="30" y="780" />
              <mxPoint x="208" y="780" />
            </Array>
          </mxGeometry>
        </mxCell>
      </root>
    </mxGraphModel>
  </diagram>
</mxfile>
